<?xml version="1.0" encoding="UTF-8"?>
<!DOCTYPE svg PUBLIC "-//W3C//DTD SVG 1.1//EN" "http://www.w3.org/Graphics/SVG/1.1/DTD/svg11.dtd">
<!-- Creator: CorelDRAW 2020 (64-Bit) -->
<svg xmlns="http://www.w3.org/2000/svg" xml:space="preserve" width="51.8253mm" height="23.3734mm" version="1.1" style="shape-rendering:geometricPrecision; text-rendering:geometricPrecision; image-rendering:optimizeQuality; fill-rule:evenodd; clip-rule:evenodd"
viewBox="0 0 30983 13974"
 xmlns:xlink="http://www.w3.org/1999/xlink"
 xmlns:xodm="http://www.corel.com/coreldraw/odm/2003">
 <defs>
  <style type="text/css">
   <![CDATA[
    .fil0 {fill:#EEEEEF}
    .fil1 {fill:#1D1819;fill-rule:nonzero}
   ]]>
  </style>
 </defs>
 <g id="图层_x0020_1">
  <metadata id="CorelCorpID_0Corel-Layer"/>
  <rect class="fil0" width="30983" height="13974" rx="1818" ry="2690"/>
  <path class="fil1" d="M9911 11452c52,-217 92,-378 118,-483 26,-105 50,-211 72,-320 22,-109 59,-267 111,-477l1075 -4670 -3462 5949 -1443 0 -708 -5949 -1075 4670c-52,209 -90,368 -111,477 -22,109 -46,215 -72,320 -26,105 -66,266 -118,483l0 0 -1836 0 0 0c52,-217 92,-378 118,-483 26,-105 50,-211 72,-320 22,-109 59,-267 111,-477l1469 -6371c52,-217 92,-378 118,-483 26,-105 50,-211 72,-320 22,-109 59,-267 111,-477l0 0 2662 0 656 5491 3200 -5491 2767 0 0 0c-52,209 -90,368 -111,477 -22,109 -46,215 -72,320 -26,105 -66,266 -118,483l-1469 6371c-52,209 -90,368 -111,477 -22,109 -46,215 -72,320 -26,105 -66,266 -118,483l0 0 -1836 0z"/>
  <path id="1" class="fil1" d="M15826 10173c-52,209 -90,368 -111,477 -22,109 -46,215 -72,320 -26,105 -66,266 -118,483l0 0 -1836 0 0 0c52,-217 92,-378 118,-483 26,-105 50,-211 72,-320 22,-109 59,-267 111,-477l1469 -6371c53,-217 92,-378 118,-483 26,-105 50,-211 72,-320 22,-109 59,-267 111,-477l0 0 1836 0 0 0c-52,209 -90,368 -111,477 -22,109 -46,215 -72,320 -26,105 -66,266 -118,483l-1469 6371z"/>
  <path id="2" class="fil1" d="M19603 10173c-52,209 -90,368 -111,477 -22,109 -46,215 -72,320 -26,105 -66,266 -118,483l0 0 -1836 0 0 0c52,-217 92,-378 118,-483 26,-105 50,-211 72,-320 22,-109 59,-267 111,-477l1469 -6371c52,-217 92,-378 118,-483 26,-105 50,-211 72,-320 22,-109 59,-267 111,-477l0 0 1836 0 0 0c-52,209 -90,368 -111,477 -22,109 -46,215 -72,320 -26,105 -66,266 -118,483l-1469 6371z"/>
  <path id="3" class="fil1" d="M28155 4091l0 0c-271,0 -476,0 -616,0 -140,0 -278,0 -413,0 -135,0 -343,0 -623,0l-289 0 -1403 6082c-52,209 -90,368 -111,477 -22,109 -46,215 -72,320 -26,105 -66,266 -118,483l0 0 -1836 0 0 0c52,-217 92,-378 118,-483 26,-105 50,-211 72,-320 22,-109 59,-267 111,-477l1403 -6082 -302 0c-271,0 -477,0 -616,0 -140,0 -278,0 -413,0 -136,0 -343,0 -623,0l0 0 367 -1569 5731 0 -367 1569z"/>
 </g>
</svg>
